<?xml version="1.0" encoding="UTF-8" standalone="no"?>
<!-- Created with Inkscape (http://www.inkscape.org/) -->
<svg
   xmlns:dc="http://purl.org/dc/elements/1.1/"
   xmlns:cc="http://web.resource.org/cc/"
   xmlns:rdf="http://www.w3.org/1999/02/22-rdf-syntax-ns#"
   xmlns:svg="http://www.w3.org/2000/svg"
   xmlns="http://www.w3.org/2000/svg"
   xmlns:sodipodi="http://sodipodi.sourceforge.net/DTD/sodipodi-0.dtd"
   xmlns:inkscape="http://www.inkscape.org/namespaces/inkscape"
   version="1.0"
   width="650"
   height="280"
   id="svg6406"
   sodipodi:version="0.32"
   inkscape:version="0.44.1"
   sodipodi:docname="ManowarLogo.svg"
   sodipodi:docbase="D:\Eigene Dateien\Eigene Bilder">
  <metadata
     id="metadata13">
    <rdf:RDF>
      <cc:Work
         rdf:about="">
        <dc:format>image/svg+xml</dc:format>
        <dc:type
           rdf:resource="http://purl.org/dc/dcmitype/StillImage" />
      </cc:Work>
    </rdf:RDF>
  </metadata>
  <sodipodi:namedview
     inkscape:window-height="977"
     inkscape:window-width="1280"
     inkscape:pageshadow="2"
     inkscape:pageopacity="0.0"
     guidetolerance="10.0"
     gridtolerance="10.0"
     objecttolerance="10.0"
     borderopacity="1.0"
     bordercolor="#666666"
     pagecolor="#ffffff"
     id="base"
     width="650px"
     height="280px"
     inkscape:zoom="0.64592934"
     inkscape:cx="150.44337"
     inkscape:cy="327.59301"
     inkscape:window-x="-4"
     inkscape:window-y="-4"
     inkscape:current-layer="svg6406" />
  <defs
     id="defs6408" />
  <path
     id="path1873"
     style="fill:black;fill-opacity:1;fill-rule:evenodd;stroke:black;stroke-width:2.1803968px;stroke-linecap:butt;stroke-linejoin:miter;stroke-opacity:1"
     d="M 28.961895,271.91917 C 28.961895,271.91917 34.390155,235.86241 58.042525,218.31756 C 58.042525,218.31756 53.588315,216.32179 53.588315,211.77396 C 53.588315,199.11883 53.444945,71.641623 53.444945,71.641623 C 53.444945,71.641623 75.119825,94.304713 78.195645,111.39972 C 78.195645,111.39972 87.903705,83.266223 102.9944,73.106913 C 102.9944,73.106913 102.9944,152.17631 102.9944,156.53052 C 102.9944,159.12121 102.50123,160.12426 100.92945,161.46946 C 104.21362,161.46946 127.62899,161.52676 130.38479,161.52676 C 129.28929,160.52273 128.8637,160.39165 128.8637,158.36111 C 128.8637,155.18316 128.8637,28.537273 128.8637,25.338603 C 128.8637,23.443353 128.95714,21.658473 131.31207,19.509393 L 99.971724,19.583553 C 99.971724,19.583553 102.89829,21.880973 102.89829,25.582813 C 102.89829,28.911903 102.89829,47.269043 102.89829,47.269043 C 102.89829,47.269043 86.894435,52.446383 78.147585,67.099243 C 78.147585,67.099243 70.791255,52.789913 53.970385,44.486623 C 53.970385,44.486623 54.113505,31.696883 54.113505,28.336133 C 54.113505,23.651713 55.210685,20.819353 56.754635,19.777563 L 25.471565,19.777563 C 25.471565,19.777563 29.559295,23.293533 29.559295,27.683053 C 29.559295,33.360683 28.961895,271.91917 28.961895,271.91917 z " />
  <path
     id="path4587"
     style="fill:black;fill-opacity:1;fill-rule:evenodd;stroke:black;stroke-width:2.05464363px;stroke-linecap:butt;stroke-linejoin:miter;stroke-opacity:1"
     d="M 209.37273,49.810191 C 211.5047,52.32546 212.83239,53.03956 213.28111,56.968579 C 213.91366,62.507375 214.18309,151.34314 213.65378,154.54781 C 213.29031,156.74858 212.73145,159.47902 209.99023,161.59463 C 215.20108,161.59463 225.41924,161.62704 236.54302,161.62704 C 234.13843,158.70844 232.83913,157.70692 232.71564,154.66111 C 231.96321,136.10539 232.09698,80.222832 232.09698,80.222832 C 260.04186,87.558344 254.87681,130.63411 254.87681,155.3843 C 254.87681,158.6209 251.60514,160.77064 250.86915,161.6614 L 277.9777,161.59463 C 275.50905,159.93818 274.13277,158.30179 274.15618,155.3992 C 274.1945,150.64473 273.38778,60.758887 273.32017,56.697505 C 273.30356,55.699542 274.31724,52.619091 276.8861,49.841744 C 269.60343,49.841744 252.92637,49.842004 250.42192,49.854045 C 252.38338,52.300967 254.01861,54.210374 254.01857,56.321609 C 254.01854,60.655202 254.05226,62.291479 254.20371,70.491146 C 248.6306,66.030683 243.71228,61.790351 232.28221,60.34328 C 232.37203,53.976266 231.30182,52.950154 235.933,49.901255 L 209.37273,49.810191 z " />
  <path
     id="path5477"
     style="fill:black;fill-opacity:1;fill-rule:evenodd;stroke:black;stroke-width:2.32320142px;stroke-linecap:butt;stroke-linejoin:miter;stroke-opacity:1"
     d="M 318.19745,207.8684 C 325.93782,178.38555 347.39936,162.98901 351.3384,159.04997 C 350.12746,159.04997 349.05706,157.0424 349.05706,156.24454 C 349.05706,155.60777 348.99261,62.476306 348.99261,62.032348 C 348.99261,61.780941 348.29122,61.806104 351.73918,61.806104 C 344.47671,54.406139 338.97514,46.66144 333.12478,40.700282 C 333.12478,44.393012 331.42252,44.296879 330.28428,44.296879 C 327.29634,44.296879 308.5346,44.162593 305.4333,44.162593 C 304.36591,44.162593 303.20509,43.705664 303.20509,40.700282 C 297.08003,46.82534 287.30231,57.167098 282.4758,61.993604 C 284.02527,61.993604 285.00643,62.001353 285.00643,62.553527 C 285.00643,62.98065 284.98817,156.06648 284.98817,156.99541 C 284.98817,159.08207 282.89458,159.56714 282.49142,159.56714 C 286.79737,163.87309 310.61404,178.37212 318.19745,207.8684 z M 318.16492,167.91236 C 321.64253,161.77492 324.40861,159.80079 328.52172,155.60979 L 328.52172,64.151197 L 307.80809,64.151197 L 307.80809,155.60979 C 311.95606,159.83631 314.65614,161.7199 318.16492,167.91236 z " />
  <path
     id="path2784"
     style="fill:black;fill-opacity:1;fill-rule:evenodd;stroke:black;stroke-width:2.13445425px;stroke-linecap:butt;stroke-linejoin:miter;stroke-opacity:1"
     d="M 140.63299,161.56275 L 158.94456,161.56275 C 155.77103,158.79125 155.38098,156.57042 154.44087,150.81783 C 153.00813,142.05069 153.06114,125.4133 153.40422,125.41253 C 156.14252,125.40635 162.22064,125.22646 175.4401,125.27737 C 176.03807,125.27968 175.76246,144.2793 175.74656,153.40675 C 175.73587,159.56079 176.14517,158.33042 173.21011,161.5625 L 202.07327,161.56275 C 200.56188,160.33489 198.33558,159.72828 198.33558,157.47757 C 198.33558,154.62071 198.33587,60.465023 198.33587,56.942998 C 198.33587,54.09817 200.78847,52.226007 202.07327,49.859699 L 175.18642,49.859699 C 178.77051,52.183823 179.246,52.654365 179.29274,55.288822 C 179.35755,58.941363 179.50383,62.119408 177.59943,63.273368 C 166.22342,70.166574 164.46596,69.772233 155.64121,78.027683 C 139.73241,92.910158 135.00885,103.31066 134.86288,124.65513 C 134.74839,141.65409 141.79932,160.05908 140.63299,161.56275 z M 174.84614,83.725712 L 174.84614,104.60459 L 154.97681,104.60459 C 157.32238,93.054921 168.49549,83.739969 174.84614,83.725712 z " />
  <path
     id="path6422"
     style="fill:black;fill-opacity:1;fill-rule:evenodd;stroke:black;stroke-width:2.00736856px;stroke-linecap:butt;stroke-linejoin:miter;stroke-opacity:1"
     d="M 467.1731,49.418041 C 458.71941,49.418041 443.42811,49.492162 436.04948,49.492162 C 440.5216,52.760265 436.09623,106.70808 432.42852,119.96845 C 421.1104,109.004 418.8913,97.889172 411.35356,85.241377 C 403.85907,97.816572 398.47103,109.11209 387.49822,119.74202 C 383.43612,105.0558 378.87564,56.804301 378.87564,53.376173 C 378.87564,51.336491 379.40657,50.546774 381.09867,49.48769 C 377.5631,49.48769 354.81005,49.475196 352.83756,49.475196 C 355.31033,50.858222 355.34213,51.914404 355.34213,53.513061 C 355.34213,56.0151 376.4327,153.67159 376.4327,156.18994 C 376.4327,157.68211 376.3321,159.08737 373.79688,160.77937 C 381.1523,160.79159 390.91382,160.81601 395.86314,160.81601 C 394.83699,160.24207 394.24555,159.93732 394.28205,157.04302 C 394.3151,154.42218 394.28207,144.84765 394.28207,138.16366 C 394.28207,135.52585 400.10725,132.72244 411.11798,122.45604 C 421.48314,132.49731 427.43457,135.29392 427.43457,138.35862 C 427.43457,145.53196 427.32955,154.84269 427.32955,157.48863 C 427.32955,159.27612 427.13962,159.86307 425.36912,160.85334 C 430.02945,160.85334 441.55932,160.98006 448.99228,161.04341 C 448.99228,161.04341 444.5916,158.27523 444.5916,154.81932 C 444.5916,150.34922 462.17791,53.071174 467.1731,49.418041 z " />
  <path
     id="path6426"
     style="fill:black;fill-opacity:1;fill-rule:evenodd;stroke:black;stroke-width:2.13445425px;stroke-linecap:butt;stroke-linejoin:miter;stroke-opacity:1"
     d="M 462.4041,160.93277 L 480.71567,160.93277 C 477.54214,158.16127 477.15209,155.94044 476.21198,150.18785 C 474.77924,141.42071 474.83225,124.78332 475.17533,124.78255 C 477.91363,124.77637 483.99175,124.59648 497.21121,124.64739 C 497.80918,124.6497 497.53357,143.64932 497.51767,152.77677 C 497.50698,158.93081 497.91628,157.70044 494.98122,160.93252 L 523.84438,160.93277 C 522.33299,159.70491 520.10669,159.0983 520.10669,156.84759 C 520.10669,153.99073 520.10698,59.835041 520.10698,56.313016 C 520.10698,53.468188 522.55958,51.596025 523.84438,49.229717 L 496.95753,49.229717 C 500.54162,51.553841 501.01711,52.024383 501.06385,54.65884 C 501.12866,58.311381 501.27494,61.489426 499.37054,62.643386 C 487.99453,69.536592 486.23707,69.142251 477.41232,77.397701 C 461.50352,92.280176 456.77996,102.68068 456.63399,124.02515 C 456.5195,141.02411 463.57043,159.4291 462.4041,160.93277 z M 496.61725,83.09573 L 496.61725,103.97461 L 476.74792,103.97461 C 479.09349,92.424939 490.2666,83.109987 496.61725,83.09573 z " />
  <path
     id="path6428"
     style="fill:black;fill-opacity:1;fill-rule:evenodd;stroke:black;stroke-width:2.03556728px;stroke-linecap:butt;stroke-linejoin:miter;stroke-opacity:1"
     d="M 631.28908,63.929282 C 618.47526,76.427557 612.30183,82.253393 604.62397,91.457846 C 610.79314,96.40506 617.82729,104.73851 622.10543,109.68613 C 622.10543,140.32562 622.12791,203.95064 622.12791,272.98221 C 621.13304,268.84178 616.10614,236.5013 595.73124,218.75007 C 595.73124,218.75007 599.56824,216.73083 599.56824,212.1295 C 599.56824,128.70826 600.64984,127.48917 597.00197,120.85709 C 590.26029,108.60025 577.82143,96.659095 556.69108,86.666037 C 556.69108,86.666037 557.00826,151.83079 557.00826,156.23622 C 557.00826,158.85738 557.43309,159.87223 558.78707,161.23325 C 555.95798,161.23325 535.78724,161.29123 533.41331,161.29123 C 534.357,160.27539 534.72362,160.14277 534.72362,158.08834 C 534.72362,154.87301 534.72362,57.509634 534.72362,54.273337 C 534.72362,52.355793 534.64313,50.549917 532.61452,48.375557 C 555.17243,37.12452 565.61572,20.073632 573.84403,7.990042 C 592.309,25.304019 607.77419,39.26138 631.28908,63.929282 z M 575.46352,38.840704 C 575.46352,38.840704 560.3955,54.77087 560.3955,56.85852 C 560.3955,59.737625 560.40548,59.696207 560.40548,61.992206 C 570.23037,66.223372 577.80582,71.702653 589.4619,79.494823 C 595.79651,70.369088 604.44188,67.553048 599.01883,59.479231 C 596.94419,56.390503 581.4904,42.720996 575.46352,38.840704 z " />
</svg>
