<svg xmlns="http://www.w3.org/2000/svg" version="1.0" width="650" height="280" id="svg6406"><path id="path1873" style="fill:#000;fill-opacity:1;fill-rule:evenodd;stroke:#000;stroke-width:2.1804px;stroke-linecap:butt;stroke-linejoin:miter;stroke-opacity:1" d="M28.962 271.92s5.428-36.058 29.08-53.602c0 0-4.454-1.996-4.454-6.544 0-12.655-.143-140.132-.143-140.132S75.12 94.305 78.195 111.4c0 0 9.709-28.134 24.8-38.293v83.424c0 2.59-.494 3.593-2.066 4.938 3.285 0 26.7.058 29.456.058-1.096-1.004-1.521-1.135-1.521-3.166V25.34c0-1.896.093-3.68 2.448-5.83l-31.34.075s2.926 2.297 2.926 5.999v21.686s-16.004 5.177-24.75 19.83c0 0-7.357-14.31-24.178-22.612 0 0 .144-12.79.144-16.15 0-4.685 1.097-7.518 2.64-8.56H25.473s4.087 3.517 4.087 7.906c0 5.678-.597 244.236-.597 244.236z"/><path id="path4587" style="fill:#000;fill-opacity:1;fill-rule:evenodd;stroke:#000;stroke-width:2.05464px;stroke-linecap:butt;stroke-linejoin:miter;stroke-opacity:1" d="M209.373 49.81c2.132 2.515 3.46 3.23 3.908 7.159.633 5.538.902 94.374.373 97.579-.364 2.2-.923 4.931-3.664 7.047 5.211 0 15.43.032 26.553.032-2.405-2.919-3.704-3.92-3.827-6.966-.753-18.556-.619-74.438-.619-74.438 27.945 7.335 22.78 50.411 22.78 75.161 0 3.237-3.272 5.387-4.008 6.277l27.109-.066c-2.469-1.657-3.845-3.293-3.822-6.196.038-4.754-.768-94.64-.836-98.701-.016-.998.997-4.079 3.566-6.856-7.283 0-23.96 0-26.464.012 1.961 2.447 3.597 4.356 3.597 6.468 0 4.333.033 5.97.185 14.17-5.573-4.461-10.492-8.702-21.922-10.149.09-6.367-.98-7.393 3.651-10.442l-26.56-.09z"/><path id="path5477" style="fill:#000;fill-opacity:1;fill-rule:evenodd;stroke:#000;stroke-width:2.3232px;stroke-linecap:butt;stroke-linejoin:miter;stroke-opacity:1" d="M318.197 207.868c7.74-29.482 29.202-44.879 33.141-48.818-1.21 0-2.28-2.008-2.28-2.805l-.065-94.213c0-.251-.702-.226 2.746-.226-7.262-7.4-12.764-15.145-18.614-21.106 0 3.693-1.702 3.597-2.84 3.597-2.989 0-21.75-.134-24.852-.134-1.067 0-2.228-.457-2.228-3.463-6.125 6.125-15.903 16.467-20.73 21.294 1.55 0 2.531.007 2.531.56l-.018 94.441c0 2.087-2.093 2.572-2.497 2.572 4.306 4.306 28.123 18.805 35.706 48.301zm-.032-39.956c3.478-6.137 6.244-8.111 10.357-12.302V64.15h-20.714v91.459c4.148 4.226 6.848 6.11 10.357 12.302z"/><path id="path2784" style="fill:#000;fill-opacity:1;fill-rule:evenodd;stroke:#000;stroke-width:2.13445px;stroke-linecap:butt;stroke-linejoin:miter;stroke-opacity:1" d="M140.633 161.563h18.312c-3.174-2.772-3.564-4.993-4.504-10.745-1.433-8.767-1.38-25.405-1.037-25.405 2.739-.007 8.817-.187 22.036-.136.598.003.322 19.002.307 28.13-.011 6.154.398 4.923-2.537 8.155h28.863c-1.511-1.227-3.737-1.834-3.737-4.084V56.943c0-2.845 2.452-4.717 3.737-7.083h-26.887c3.585 2.324 4.06 2.794 4.107 5.429.065 3.652.21 6.83-1.694 7.984-11.376 6.894-13.133 6.5-21.958 14.755-15.909 14.882-20.632 25.283-20.778 46.627-.115 17 6.936 35.404 5.77 36.908zm34.213-77.837v20.879h-19.87c2.346-11.55 13.52-20.865 19.87-20.88z"/><path id="path6422" style="fill:#000;fill-opacity:1;fill-rule:evenodd;stroke:#000;stroke-width:2.00737px;stroke-linecap:butt;stroke-linejoin:miter;stroke-opacity:1" d="M467.173 49.418c-8.454 0-23.745.074-31.124.074 4.473 3.268.047 57.216-3.62 70.476-11.319-10.964-13.538-22.079-21.075-34.727-7.495 12.576-12.883 23.871-23.856 34.501-4.062-14.686-8.622-62.938-8.622-66.366 0-2.04.53-2.83 2.223-3.888-3.536 0-26.289-.013-28.261-.013 2.472 1.383 2.504 2.44 2.504 4.038 0 2.502 21.09 100.159 21.09 102.677 0 1.492-.1 2.897-2.635 4.59 7.355.012 17.117.036 22.066.036-1.026-.574-1.617-.879-1.58-3.773.032-2.62 0-12.195 0-18.88 0-2.637 5.824-5.44 16.835-15.707 10.365 10.041 16.317 12.838 16.317 15.903 0 7.173-.105 16.484-.105 19.13 0 1.787-.19 2.374-1.96 3.364 4.66 0 16.19.127 23.622.19 0 0-4.4-2.768-4.4-6.224 0-4.47 17.586-101.748 22.581-105.401z"/><path id="path6426" style="fill:#000;fill-opacity:1;fill-rule:evenodd;stroke:#000;stroke-width:2.13445px;stroke-linecap:butt;stroke-linejoin:miter;stroke-opacity:1" d="M462.404 160.933h18.312c-3.174-2.772-3.564-4.993-4.504-10.745-1.433-8.767-1.38-25.405-1.037-25.405 2.739-.007 8.817-.187 22.036-.136.598.003.323 19.002.307 28.13-.011 6.154.398 4.923-2.537 8.156h28.863c-1.511-1.228-3.737-1.835-3.737-4.085V56.313c0-2.845 2.453-4.717 3.737-7.083h-26.886c3.584 2.324 4.06 2.794 4.106 5.429.065 3.652.21 6.83-1.693 7.984-11.376 6.894-13.134 6.5-21.959 14.755-15.908 14.882-20.632 25.283-20.778 46.627-.115 17 6.936 35.404 5.77 36.908zm34.213-77.837v20.879h-19.87c2.346-11.55 13.52-20.865 19.87-20.88z"/><path id="path6428" style="fill:#000;fill-opacity:1;fill-rule:evenodd;stroke:#000;stroke-width:2.03557px;stroke-linecap:butt;stroke-linejoin:miter;stroke-opacity:1" d="M631.29 63.93c-12.815 12.498-18.988 18.323-26.666 27.528 6.17 4.947 13.203 13.28 17.481 18.228 0 30.64.023 94.265.023 163.296-.995-4.14-6.022-36.48-26.397-54.232 0 0 3.837-2.02 3.837-6.62 0-83.422 1.082-84.64-2.566-91.273-6.742-12.257-19.18-24.198-40.31-34.191 0 0 .316 65.165.316 69.57 0 2.621.425 3.636 1.78 4.997-2.83 0-23 .058-25.375.058.944-1.016 1.31-1.148 1.31-3.203V54.273c0-1.917-.08-3.723-2.108-5.897 22.557-11.251 33-28.302 41.229-40.386 18.465 17.314 33.93 31.271 57.445 55.94zm-55.826-25.09s-15.069 15.93-15.069 18.019c0 2.879.01 2.837.01 5.133 9.825 4.231 17.4 9.71 29.057 17.503 6.335-9.126 14.98-11.942 9.557-20.016-2.075-3.088-17.529-16.758-23.555-20.638z"/></svg>